<svg width="512" height="512" viewBox="0 0 512 512" fill="none" xmlns="http://www.w3.org/2000/svg">
  <defs>
    <linearGradient id="bg" x1="64" y1="52" x2="444" y2="460" gradientUnits="userSpaceOnUse">
      <stop offset="0" stop-color="#EAF4FF"/>
      <stop offset="0.52" stop-color="#BFD8FF"/>
      <stop offset="1" stop-color="#C9FFF2"/>
    </linearGradient>
    <linearGradient id="glass" x1="126" y1="112" x2="390" y2="390" gradientUnits="userSpaceOnUse">
      <stop offset="0" stop-color="#FFFFFF" stop-opacity="0.96"/>
      <stop offset="1" stop-color="#F4FBFF" stop-opacity="0.84"/>
    </linearGradient>
    <linearGradient id="flow" x1="182" y1="184" x2="332" y2="334" gradientUnits="userSpaceOnUse">
      <stop offset="0" stop-color="#61A5FF"/>
      <stop offset="1" stop-color="#43D5C3"/>
    </linearGradient>
    <filter id="soft" x="72" y="64" width="368" height="384" filterUnits="userSpaceOnUse" color-interpolation-filters="sRGB">
      <feDropShadow dx="0" dy="20" stdDeviation="18" flood-color="#7AA4D8" flood-opacity="0.24"/>
    </filter>
  </defs>

  <rect x="32" y="32" width="448" height="448" rx="112" fill="url(#bg)"/>
  <path d="M76 86C129 54 201 48 262 58C323 68 380 96 426 140" stroke="white" stroke-opacity="0.65" stroke-width="24" stroke-linecap="round"/>
  <rect x="48" y="48" width="416" height="416" rx="96" stroke="white" stroke-opacity="0.52" stroke-width="2"/>

  <g filter="url(#soft)">
    <rect x="108" y="108" width="296" height="296" rx="86" fill="url(#glass)"/>
    <rect x="110" y="110" width="292" height="108" rx="54" fill="white" fill-opacity="0.46"/>
  </g>

  <path d="M176 300C197 275 218 253 244 231C267 212 292 193 326 170" stroke="url(#flow)" stroke-width="24" stroke-linecap="round"/>
  <circle cx="168" cy="308" r="30" fill="white"/>
  <circle cx="250" cy="224" r="30" fill="white"/>
  <circle cx="340" cy="164" r="30" fill="white"/>
  <circle cx="168" cy="308" r="12" fill="#6AA7FF"/>
  <circle cx="250" cy="224" r="12" fill="#6AA7FF"/>
  <circle cx="340" cy="164" r="12" fill="#47D2C2"/>

  <rect x="274" y="274" width="98" height="98" rx="30" fill="white"/>
  <path d="M301 323L322 344L347 305" stroke="#3FAF95" stroke-width="19" stroke-linecap="round" stroke-linejoin="round"/>
</svg>
